<svg width="212" height="43" viewBox="0 0 212 43" fill="none" xmlns="http://www.w3.org/2000/svg">
<path d="M186.914 12.2669C186.361 15.5455 185.293 18.382 183.709 20.7764C182.125 23.134 180.228 24.9391 178.017 26.1916C175.844 27.4072 173.56 28.015 171.166 28.015L170.06 21.3843C171.313 21.3843 172.436 20.9975 173.431 20.2239C174.463 19.4134 175.347 18.3083 176.083 16.9085L171.166 16.6875V11.1618H177.852C177.999 10.1672 178.073 9.06206 178.073 7.84642H171.166V1.21564H187.3V7.45962V8.39899H189.621V0.663074H199.457V24.3681H189.621V16.6875H186.914V12.2669ZM210.95 0.663074V26.0258H201.115V0.663074H210.95ZM210.398 42.658C206.567 42.658 203.085 42.1791 199.954 41.2213C196.86 40.2267 194.263 38.8085 192.163 36.9666C190.063 38.8085 187.448 40.2267 184.317 41.2213C181.222 42.1791 177.76 42.658 173.928 42.658L172.823 34.3695C176.875 34.3695 180.191 33.688 182.769 32.325C185.348 30.9252 186.748 28.8255 186.969 26.0258H197.357C197.578 28.8255 198.978 30.9252 201.557 32.325C204.135 33.688 207.451 34.3695 211.503 34.3695L210.398 42.658Z" fill="black"/>
<path d="M163.712 0.663074V17.1848H167.856V25.4732H163.712V42.658H153.324V0.663074H163.712ZM149.566 1.10513V41.0003H124.867V1.10513H149.566ZM139.178 9.3936H135.255V32.7118H139.178V9.3936Z" fill="black"/>
<path d="M85.0863 0V24.3681H74.6981V0H85.0863ZM69.9461 15.6376H56.795V17.5163H71.0512V23.8155H46.4068V9.33835H59.5578V7.45963H46.4068V1.10513H69.9461V15.6376ZM85.0863 42.658H47.5119V26.0258H57.9001V28.2913H74.7534V26.0258H85.0863V42.658ZM74.7534 34.2038H57.9001V36.6903H74.7534V34.2038Z" fill="black"/>
<path d="M28.2913 13.8141H1.10513V8.34372H28.2913V6.74128H1.10513V1.27089H38.6795L38.127 15.306H28.2913V13.8141ZM0 16.4112H39.7847V21.771H0V16.4112ZM38.6795 35.6404H11.4381V37.1876H39.2321V42.658H1.10513V30.17H28.2913V28.6229H1.10513V23.1525H38.6795V35.6404Z" fill="black"/>
<path d="M101.964 0.000629958C106.592 0.0592655 110.325 3.82918 110.325 8.47093V10.0088L110.325 27.6934L110.325 27.757C110.291 30.4407 108.105 32.6058 105.413 32.6065L105.348 32.6062C102.664 32.5722 100.499 30.3857 100.499 27.6934V10.0088H103.236V27.6934L103.236 27.7496C103.266 28.9256 104.229 29.8698 105.412 29.8699L105.468 29.8692C106.644 29.8393 107.589 28.8766 107.589 27.6934V26.8202L107.588 8.47093L107.588 8.39679C107.549 5.28879 105.037 2.77665 101.929 2.73724L101.854 2.73678C98.7123 2.73679 96.1604 5.26404 96.1207 8.39671L96.1202 8.47086V29.3225L96.121 29.4438C96.1859 34.57 100.362 38.7057 105.503 38.7057L105.625 38.7049C110.751 38.64 114.887 34.4642 114.887 29.3225V26.1165H117.623V29.3225L117.622 29.4791C117.538 36.1002 112.145 41.4418 105.504 41.4424L105.347 41.4415C98.7252 41.3576 93.3835 35.9638 93.3835 29.3225V8.47086L93.3842 8.36136C93.4428 3.73391 97.212 0.000678669 101.853 1.90735e-05L101.964 0.000629958Z" fill="black"/>
<path d="M114.887 20.643H117.623V23.3798H114.887V20.643Z" fill="#FF8000"/>
</svg>
